<?xml version="1.0" encoding="UTF-8" standalone="no"?>
<!DOCTYPE svg PUBLIC "-//W3C//DTD SVG 1.1//EN"
 "http://www.w3.org/Graphics/SVG/1.1/DTD/svg11.dtd">
<!-- Generated by graphviz version 12.2.1 (0)
 -->
<!-- Pages: 1 -->
<svg width="364pt" height="814pt"
 viewBox="0.00 0.00 363.98 814.00" xmlns="http://www.w3.org/2000/svg" xmlns:xlink="http://www.w3.org/1999/xlink">
<g id="graph0" class="graph" transform="scale(1 1) rotate(0) translate(4 810)">
<polygon fill="white" stroke="none" points="-4,4 -4,-810 359.98,-810 359.98,4 -4,4"/>
<g id="clust1" class="cluster">
<title>cluster_input</title>
<polygon fill="none" stroke="black" points="8,-251 8,-565 99.07,-565 99.07,-251 8,-251"/>
</g>
<g id="clust2" class="cluster">
<title>cluster_hidden</title>
<polygon fill="none" stroke="black" points="137.07,-8 137.07,-798 206.63,-798 206.63,-8 137.07,-8"/>
</g>
<g id="clust3" class="cluster">
<title>cluster_output</title>
<polygon fill="none" stroke="black" points="244.63,-294 244.63,-521 347.98,-521 347.98,-294 244.63,-294"/>
</g>
<!-- I1 -->
<g id="node1" class="node">
<title>I1</title>
<ellipse fill="lightblue" stroke="black" cx="53.53" cy="-519" rx="37.53" ry="37.53"/>
<text text-anchor="middle" x="53.53" y="-513.95" font-family="Times,serif" font-size="14.00">Input 1</text>
</g>
<!-- H1 -->
<g id="node4" class="node">
<title>H1</title>
<ellipse fill="lightgreen" stroke="black" cx="171.85" cy="-208" rx="22.18" ry="22.18"/>
<text text-anchor="middle" x="171.85" y="-202.95" font-family="Times,serif" font-size="14.00">H1</text>
</g>
<!-- I1&#45;&gt;H1 -->
<g id="edge1" class="edge">
<title>I1&#45;&gt;H1</title>
<path fill="none" stroke="black" d="M67.65,-483.93C90.49,-422.87 137.2,-297.97 159.07,-239.5"/>
<polygon fill="black" stroke="black" points="162.34,-240.75 162.56,-230.15 155.78,-238.29 162.34,-240.75"/>
</g>
<!-- H2 -->
<g id="node5" class="node">
<title>H2</title>
<ellipse fill="lightgreen" stroke="black" cx="171.85" cy="-288" rx="22.18" ry="22.18"/>
<text text-anchor="middle" x="171.85" y="-282.95" font-family="Times,serif" font-size="14.00">H2</text>
</g>
<!-- I1&#45;&gt;H2 -->
<g id="edge2" class="edge">
<title>I1&#45;&gt;H2</title>
<path fill="none" stroke="black" d="M71.2,-485.9C93.84,-440.94 133.99,-361.2 155.78,-317.93"/>
<polygon fill="black" stroke="black" points="158.85,-319.62 160.22,-309.11 152.59,-316.47 158.85,-319.62"/>
</g>
<!-- H3 -->
<g id="node6" class="node">
<title>H3</title>
<ellipse fill="lightgreen" stroke="black" cx="171.85" cy="-368" rx="22.18" ry="22.18"/>
<text text-anchor="middle" x="171.85" y="-362.95" font-family="Times,serif" font-size="14.00">H3</text>
</g>
<!-- I1&#45;&gt;H3 -->
<g id="edge3" class="edge">
<title>I1&#45;&gt;H3</title>
<path fill="none" stroke="black" d="M77.24,-489.53C98.55,-461.86 130.14,-420.85 150.62,-394.27"/>
<polygon fill="black" stroke="black" points="153.36,-396.44 156.69,-386.38 147.82,-392.17 153.36,-396.44"/>
</g>
<!-- H4 -->
<g id="node7" class="node">
<title>H4</title>
<ellipse fill="lightgreen" stroke="black" cx="171.85" cy="-448" rx="22.18" ry="22.18"/>
<text text-anchor="middle" x="171.85" y="-442.95" font-family="Times,serif" font-size="14.00">H4</text>
</g>
<!-- I1&#45;&gt;H4 -->
<g id="edge4" class="edge">
<title>I1&#45;&gt;H4</title>
<path fill="none" stroke="black" d="M86.01,-499.79C103.78,-488.94 125.8,-475.5 142.95,-465.03"/>
<polygon fill="black" stroke="black" points="144.41,-468.24 151.13,-460.04 140.77,-462.26 144.41,-468.24"/>
</g>
<!-- H5 -->
<g id="node8" class="node">
<title>H5</title>
<ellipse fill="lightgreen" stroke="black" cx="171.85" cy="-528" rx="22.18" ry="22.18"/>
<text text-anchor="middle" x="171.85" y="-522.95" font-family="Times,serif" font-size="14.00">H5</text>
</g>
<!-- I1&#45;&gt;H5 -->
<g id="edge5" class="edge">
<title>I1&#45;&gt;H5</title>
<path fill="none" stroke="black" d="M91.34,-521.85C106.46,-523.02 123.82,-524.36 138.46,-525.49"/>
<polygon fill="black" stroke="black" points="137.77,-528.95 148.01,-526.23 138.31,-521.97 137.77,-528.95"/>
</g>
<!-- H6 -->
<g id="node9" class="node">
<title>H6</title>
<ellipse fill="lightgreen" stroke="black" cx="171.85" cy="-608" rx="22.18" ry="22.18"/>
<text text-anchor="middle" x="171.85" y="-602.95" font-family="Times,serif" font-size="14.00">H6</text>
</g>
<!-- I1&#45;&gt;H6 -->
<g id="edge6" class="edge">
<title>I1&#45;&gt;H6</title>
<path fill="none" stroke="black" d="M83.88,-541.46C102.68,-555.84 126.85,-574.34 144.94,-588.17"/>
<polygon fill="black" stroke="black" points="142.51,-590.72 152.58,-594.02 146.76,-585.16 142.51,-590.72"/>
</g>
<!-- H7 -->
<g id="node10" class="node">
<title>H7</title>
<ellipse fill="lightgreen" stroke="black" cx="171.85" cy="-688" rx="22.18" ry="22.18"/>
<text text-anchor="middle" x="171.85" y="-682.95" font-family="Times,serif" font-size="14.00">H7</text>
</g>
<!-- I1&#45;&gt;H7 -->
<g id="edge7" class="edge">
<title>I1&#45;&gt;H7</title>
<path fill="none" stroke="black" d="M75.6,-549.6C97.45,-581.36 131.31,-630.55 152.22,-660.93"/>
<polygon fill="black" stroke="black" points="149.11,-662.59 157.66,-668.84 154.88,-658.62 149.11,-662.59"/>
</g>
<!-- H8 -->
<g id="node11" class="node">
<title>H8</title>
<ellipse fill="lightgreen" stroke="black" cx="171.85" cy="-768" rx="22.18" ry="22.18"/>
<text text-anchor="middle" x="171.85" y="-762.95" font-family="Times,serif" font-size="14.00">H8</text>
</g>
<!-- I1&#45;&gt;H8 -->
<g id="edge8" class="edge">
<title>I1&#45;&gt;H8</title>
<path fill="none" stroke="black" d="M70.34,-552.84C93.11,-601.59 134.81,-690.84 156.65,-737.6"/>
<polygon fill="black" stroke="black" points="153.45,-739.03 160.86,-746.61 159.8,-736.07 153.45,-739.03"/>
</g>
<!-- H9 -->
<g id="node12" class="node">
<title>H9</title>
<ellipse fill="lightgreen" stroke="black" cx="171.85" cy="-38" rx="22.18" ry="22.18"/>
<text text-anchor="middle" x="171.85" y="-32.95" font-family="Times,serif" font-size="14.00">H9</text>
</g>
<!-- I1&#45;&gt;H9 -->
<g id="edge9" class="edge">
<title>I1&#45;&gt;H9</title>
<path fill="none" stroke="black" d="M63.37,-482.45C85.32,-391.69 142.04,-157.15 162.95,-70.66"/>
<polygon fill="black" stroke="black" points="166.3,-71.71 165.25,-61.17 159.49,-70.07 166.3,-71.71"/>
</g>
<!-- H10 -->
<g id="node13" class="node">
<title>H10</title>
<ellipse fill="lightgreen" stroke="black" cx="171.85" cy="-123" rx="26.78" ry="26.78"/>
<text text-anchor="middle" x="171.85" y="-117.95" font-family="Times,serif" font-size="14.00">H10</text>
</g>
<!-- I1&#45;&gt;H10 -->
<g id="edge10" class="edge">
<title>I1&#45;&gt;H10</title>
<path fill="none" stroke="black" d="M65.16,-482.81C87.25,-407.62 137.88,-235.25 160.08,-159.66"/>
<polygon fill="black" stroke="black" points="163.38,-160.85 162.84,-150.26 156.67,-158.87 163.38,-160.85"/>
</g>
<!-- I2 -->
<g id="node2" class="node">
<title>I2</title>
<ellipse fill="lightblue" stroke="black" cx="53.53" cy="-297" rx="37.53" ry="37.53"/>
<text text-anchor="middle" x="53.53" y="-291.95" font-family="Times,serif" font-size="14.00">Input 2</text>
</g>
<!-- I2&#45;&gt;H1 -->
<g id="edge11" class="edge">
<title>I2&#45;&gt;H1</title>
<path fill="none" stroke="black" d="M83.88,-274.54C102.68,-260.16 126.85,-241.66 144.94,-227.83"/>
<polygon fill="black" stroke="black" points="146.76,-230.84 152.58,-221.98 142.51,-225.28 146.76,-230.84"/>
</g>
<!-- I2&#45;&gt;H2 -->
<g id="edge12" class="edge">
<title>I2&#45;&gt;H2</title>
<path fill="none" stroke="black" d="M91.34,-294.15C106.46,-292.98 123.82,-291.64 138.46,-290.51"/>
<polygon fill="black" stroke="black" points="138.31,-294.03 148.01,-289.77 137.77,-287.05 138.31,-294.03"/>
</g>
<!-- I2&#45;&gt;H3 -->
<g id="edge13" class="edge">
<title>I2&#45;&gt;H3</title>
<path fill="none" stroke="black" d="M86.01,-316.21C103.78,-327.06 125.8,-340.5 142.95,-350.97"/>
<polygon fill="black" stroke="black" points="140.77,-353.74 151.13,-355.96 144.41,-347.76 140.77,-353.74"/>
</g>
<!-- I2&#45;&gt;H4 -->
<g id="edge14" class="edge">
<title>I2&#45;&gt;H4</title>
<path fill="none" stroke="black" d="M77.24,-326.47C98.55,-354.14 130.14,-395.15 150.62,-421.73"/>
<polygon fill="black" stroke="black" points="147.82,-423.83 156.69,-429.62 153.36,-419.56 147.82,-423.83"/>
</g>
<!-- I2&#45;&gt;H5 -->
<g id="edge15" class="edge">
<title>I2&#45;&gt;H5</title>
<path fill="none" stroke="black" d="M71.2,-330.1C93.84,-375.06 133.99,-454.8 155.78,-498.07"/>
<polygon fill="black" stroke="black" points="152.59,-499.53 160.22,-506.89 158.85,-496.38 152.59,-499.53"/>
</g>
<!-- I2&#45;&gt;H6 -->
<g id="edge16" class="edge">
<title>I2&#45;&gt;H6</title>
<path fill="none" stroke="black" d="M67.65,-332.07C90.49,-393.13 137.2,-518.03 159.07,-576.5"/>
<polygon fill="black" stroke="black" points="155.78,-577.71 162.56,-585.85 162.34,-575.25 155.78,-577.71"/>
</g>
<!-- I2&#45;&gt;H7 -->
<g id="edge17" class="edge">
<title>I2&#45;&gt;H7</title>
<path fill="none" stroke="black" d="M65.27,-333.08C87.85,-408.99 139.95,-584.12 161.38,-656.16"/>
<polygon fill="black" stroke="black" points="157.91,-656.77 164.11,-665.35 164.62,-654.77 157.91,-656.77"/>
</g>
<!-- I2&#45;&gt;H8 -->
<g id="edge18" class="edge">
<title>I2&#45;&gt;H8</title>
<path fill="none" stroke="black" d="M63.56,-333.57C85.59,-422.74 141.79,-650.31 162.78,-735.32"/>
<polygon fill="black" stroke="black" points="159.34,-736 165.14,-744.87 166.14,-734.32 159.34,-736"/>
</g>
<!-- I2&#45;&gt;H9 -->
<g id="edge19" class="edge">
<title>I2&#45;&gt;H9</title>
<path fill="none" stroke="black" d="M69.86,-262.87C92.69,-212.03 135.3,-117.16 157.15,-68.5"/>
<polygon fill="black" stroke="black" points="160.34,-69.95 161.24,-59.4 153.95,-67.09 160.34,-69.95"/>
</g>
<!-- I2&#45;&gt;H10 -->
<g id="edge20" class="edge">
<title>I2&#45;&gt;H10</title>
<path fill="none" stroke="black" d="M75.33,-265.89C96.41,-234.36 128.85,-185.83 149.97,-154.24"/>
<polygon fill="black" stroke="black" points="152.64,-156.54 155.29,-146.28 146.82,-152.65 152.64,-156.54"/>
</g>
<!-- I3 -->
<g id="node3" class="node">
<title>I3</title>
<ellipse fill="lightblue" stroke="black" cx="53.53" cy="-408" rx="37.53" ry="37.53"/>
<text text-anchor="middle" x="53.53" y="-402.95" font-family="Times,serif" font-size="14.00">Input 3</text>
</g>
<!-- I3&#45;&gt;H1 -->
<g id="edge21" class="edge">
<title>I3&#45;&gt;H1</title>
<path fill="none" stroke="black" d="M73.22,-375.87C95.59,-337.41 132.69,-273.61 154.14,-236.73"/>
<polygon fill="black" stroke="black" points="156.99,-238.79 158.99,-228.39 150.94,-235.28 156.99,-238.79"/>
</g>
<!-- I3&#45;&gt;H2 -->
<g id="edge22" class="edge">
<title>I3&#45;&gt;H2</title>
<path fill="none" stroke="black" d="M80.35,-381.37C100.61,-360.46 128.55,-331.64 148.01,-311.56"/>
<polygon fill="black" stroke="black" points="150.28,-314.25 154.73,-304.63 145.25,-309.38 150.28,-314.25"/>
</g>
<!-- I3&#45;&gt;H3 -->
<g id="edge23" class="edge">
<title>I3&#45;&gt;H3</title>
<path fill="none" stroke="black" d="M89.43,-396C105.48,-390.48 124.35,-383.99 139.89,-378.65"/>
<polygon fill="black" stroke="black" points="140.77,-382.05 149.09,-375.48 138.49,-375.43 140.77,-382.05"/>
</g>
<!-- I3&#45;&gt;H4 -->
<g id="edge24" class="edge">
<title>I3&#45;&gt;H4</title>
<path fill="none" stroke="black" d="M89.43,-420C105.48,-425.52 124.35,-432.01 139.89,-437.35"/>
<polygon fill="black" stroke="black" points="138.49,-440.57 149.09,-440.52 140.77,-433.95 138.49,-440.57"/>
</g>
<!-- I3&#45;&gt;H5 -->
<g id="edge25" class="edge">
<title>I3&#45;&gt;H5</title>
<path fill="none" stroke="black" d="M80.35,-434.63C100.61,-455.54 128.55,-484.36 148.01,-504.44"/>
<polygon fill="black" stroke="black" points="145.25,-506.62 154.73,-511.37 150.28,-501.75 145.25,-506.62"/>
</g>
<!-- I3&#45;&gt;H6 -->
<g id="edge26" class="edge">
<title>I3&#45;&gt;H6</title>
<path fill="none" stroke="black" d="M73.22,-440.13C95.59,-478.59 132.69,-542.39 154.14,-579.27"/>
<polygon fill="black" stroke="black" points="150.94,-580.72 158.99,-587.61 156.99,-577.21 150.94,-580.72"/>
</g>
<!-- I3&#45;&gt;H7 -->
<g id="edge27" class="edge">
<title>I3&#45;&gt;H7</title>
<path fill="none" stroke="black" d="M68.91,-442.61C91.84,-497.8 136.31,-604.84 158.14,-657.39"/>
<polygon fill="black" stroke="black" points="154.78,-658.45 161.85,-666.34 161.25,-655.77 154.78,-658.45"/>
</g>
<!-- I3&#45;&gt;H8 -->
<g id="edge28" class="edge">
<title>I3&#45;&gt;H8</title>
<path fill="none" stroke="black" d="M66.11,-443.83C88.82,-514.11 138.86,-668.99 160.52,-736.03"/>
<polygon fill="black" stroke="black" points="157.11,-736.87 163.52,-745.31 163.77,-734.72 157.11,-736.87"/>
</g>
<!-- I3&#45;&gt;H9 -->
<g id="edge29" class="edge">
<title>I3&#45;&gt;H9</title>
<path fill="none" stroke="black" d="M65.79,-372.19C88.43,-300.18 139.13,-138.89 160.76,-70.09"/>
<polygon fill="black" stroke="black" points="164.1,-71.15 163.76,-60.56 157.42,-69.05 164.1,-71.15"/>
</g>
<!-- I3&#45;&gt;H10 -->
<g id="edge30" class="edge">
<title>I3&#45;&gt;H10</title>
<path fill="none" stroke="black" d="M68.68,-373.34C90.94,-318.8 133.92,-213.49 156.38,-158.46"/>
<polygon fill="black" stroke="black" points="159.6,-159.82 160.14,-149.24 153.12,-157.17 159.6,-159.82"/>
</g>
<!-- O1 -->
<g id="node14" class="node">
<title>O1</title>
<ellipse fill="lightpink" stroke="black" cx="296.31" cy="-346" rx="43.67" ry="43.67"/>
<text text-anchor="middle" x="296.31" y="-340.95" font-family="Times,serif" font-size="14.00">Output 1</text>
</g>
<!-- H1&#45;&gt;O1 -->
<g id="edge31" class="edge">
<title>H1&#45;&gt;O1</title>
<path fill="none" stroke="black" d="M187.38,-224.37C204.93,-244.15 235.08,-278.13 259.07,-305.16"/>
<polygon fill="black" stroke="black" points="256.35,-307.37 265.61,-312.53 261.59,-302.73 256.35,-307.37"/>
</g>
<!-- O2 -->
<g id="node15" class="node">
<title>O2</title>
<ellipse fill="lightpink" stroke="black" cx="296.31" cy="-469" rx="43.67" ry="43.67"/>
<text text-anchor="middle" x="296.31" y="-463.95" font-family="Times,serif" font-size="14.00">Output 2</text>
</g>
<!-- H1&#45;&gt;O2 -->
<g id="edge32" class="edge">
<title>H1&#45;&gt;O2</title>
<path fill="none" stroke="black" d="M182.26,-228.05C201.29,-268.61 244.86,-361.49 272.02,-419.36"/>
<polygon fill="black" stroke="black" points="268.83,-420.8 276.24,-428.36 275.16,-417.82 268.83,-420.8"/>
</g>
<!-- H2&#45;&gt;O1 -->
<g id="edge33" class="edge">
<title>H2&#45;&gt;O1</title>
<path fill="none" stroke="black" d="M192.52,-297.32C207.01,-304.18 227.38,-313.83 246.17,-322.73"/>
<polygon fill="black" stroke="black" points="244.49,-325.8 255.03,-326.92 247.49,-319.48 244.49,-325.8"/>
</g>
<!-- H2&#45;&gt;O2 -->
<g id="edge34" class="edge">
<title>H2&#45;&gt;O2</title>
<path fill="none" stroke="black" d="M185.04,-306.02C203.44,-333.22 238.91,-385.64 264.66,-423.7"/>
<polygon fill="black" stroke="black" points="261.63,-425.47 270.13,-431.79 267.43,-421.55 261.63,-425.47"/>
</g>
<!-- H3&#45;&gt;O1 -->
<g id="edge35" class="edge">
<title>H3&#45;&gt;O1</title>
<path fill="none" stroke="black" d="M194.18,-364.17C207.45,-361.78 225.14,-358.61 242.01,-355.57"/>
<polygon fill="black" stroke="black" points="242.22,-359.09 251.44,-353.88 240.98,-352.2 242.22,-359.09"/>
</g>
<!-- H3&#45;&gt;O2 -->
<g id="edge36" class="edge">
<title>H3&#45;&gt;O2</title>
<path fill="none" stroke="black" d="M189.62,-381.83C205.97,-395.32 231.5,-416.37 253.37,-434.41"/>
<polygon fill="black" stroke="black" points="251.06,-437.04 261,-440.7 255.51,-431.64 251.06,-437.04"/>
</g>
<!-- H4&#45;&gt;O1 -->
<g id="edge37" class="edge">
<title>H4&#45;&gt;O1</title>
<path fill="none" stroke="black" d="M189.62,-434.03C205.97,-420.41 231.5,-399.15 253.37,-380.93"/>
<polygon fill="black" stroke="black" points="255.56,-383.66 261,-374.57 251.08,-378.28 255.56,-383.66"/>
</g>
<!-- H4&#45;&gt;O2 -->
<g id="edge38" class="edge">
<title>H4&#45;&gt;O2</title>
<path fill="none" stroke="black" d="M194.18,-451.66C207.45,-453.93 225.14,-456.97 242.01,-459.86"/>
<polygon fill="black" stroke="black" points="240.99,-463.24 251.44,-461.48 242.17,-456.34 240.99,-463.24"/>
</g>
<!-- H5&#45;&gt;O1 -->
<g id="edge39" class="edge">
<title>H5&#45;&gt;O1</title>
<path fill="none" stroke="black" d="M185.04,-509.88C203.44,-482.53 238.91,-429.82 264.66,-391.55"/>
<polygon fill="black" stroke="black" points="267.46,-393.66 270.14,-383.41 261.65,-389.75 267.46,-393.66"/>
</g>
<!-- H5&#45;&gt;O2 -->
<g id="edge40" class="edge">
<title>H5&#45;&gt;O2</title>
<path fill="none" stroke="black" d="M192.25,-518.65C206.76,-511.66 227.28,-501.78 246.19,-492.67"/>
<polygon fill="black" stroke="black" points="247.63,-495.86 255.11,-488.37 244.59,-489.55 247.63,-495.86"/>
</g>
<!-- H6&#45;&gt;O1 -->
<g id="edge41" class="edge">
<title>H6&#45;&gt;O1</title>
<path fill="none" stroke="black" d="M182.26,-587.88C201.29,-547.15 244.86,-453.92 272.02,-395.84"/>
<polygon fill="black" stroke="black" points="275.18,-397.33 276.24,-386.79 268.84,-394.37 275.18,-397.33"/>
</g>
<!-- H6&#45;&gt;O2 -->
<g id="edge42" class="edge">
<title>H6&#45;&gt;O2</title>
<path fill="none" stroke="black" d="M187.38,-591.51C204.93,-571.59 235.08,-537.36 259.07,-510.14"/>
<polygon fill="black" stroke="black" points="261.63,-512.53 265.61,-502.71 256.37,-507.9 261.63,-512.53"/>
</g>
<!-- H7&#45;&gt;O1 -->
<g id="edge43" class="edge">
<title>H7&#45;&gt;O1</title>
<path fill="none" stroke="black" d="M180.33,-667.12C199.21,-614.39 249.26,-474.59 276.69,-397.99"/>
<polygon fill="black" stroke="black" points="279.98,-399.19 280.06,-388.59 273.39,-396.83 279.98,-399.19"/>
</g>
<!-- H7&#45;&gt;O2 -->
<g id="edge44" class="edge">
<title>H7&#45;&gt;O2</title>
<path fill="none" stroke="black" d="M183.5,-668.95C202.3,-635.33 241.88,-564.55 268.54,-516.87"/>
<polygon fill="black" stroke="black" points="271.46,-518.83 273.28,-508.39 265.35,-515.41 271.46,-518.83"/>
</g>
<!-- H8&#45;&gt;O1 -->
<g id="edge45" class="edge">
<title>H8&#45;&gt;O1</title>
<path fill="none" stroke="black" d="M179.01,-746.78C197.49,-683.1 252.87,-492.25 280,-398.77"/>
<polygon fill="black" stroke="black" points="283.31,-399.9 282.74,-389.32 276.59,-397.95 283.31,-399.9"/>
</g>
<!-- H8&#45;&gt;O2 -->
<g id="edge46" class="edge">
<title>H8&#45;&gt;O2</title>
<path fill="none" stroke="black" d="M181.27,-747.45C200.32,-700.92 247.23,-586.4 274.58,-519.61"/>
<polygon fill="black" stroke="black" points="277.67,-521.3 278.22,-510.72 271.19,-518.65 277.67,-521.3"/>
</g>
<!-- H9&#45;&gt;O1 -->
<g id="edge47" class="edge">
<title>H9&#45;&gt;O1</title>
<path fill="none" stroke="black" d="M181.07,-58.69C200.09,-106.51 247.54,-225.86 274.93,-294.76"/>
<polygon fill="black" stroke="black" points="271.64,-295.96 278.59,-303.95 278.15,-293.37 271.64,-295.96"/>
</g>
<!-- H9&#45;&gt;O2 -->
<g id="edge48" class="edge">
<title>H9&#45;&gt;O2</title>
<path fill="none" stroke="black" d="M178.92,-59.37C197.38,-124.32 253.18,-320.71 280.25,-416.01"/>
<polygon fill="black" stroke="black" points="276.81,-416.72 282.91,-425.38 283.55,-414.8 276.81,-416.72"/>
</g>
<!-- H10&#45;&gt;O1 -->
<g id="edge49" class="edge">
<title>H10&#45;&gt;O1</title>
<path fill="none" stroke="black" d="M185.72,-146.44C205.4,-182.28 243.38,-251.44 269.04,-298.17"/>
<polygon fill="black" stroke="black" points="265.87,-299.66 273.75,-306.74 272,-296.29 265.87,-299.66"/>
</g>
<!-- H10&#45;&gt;O2 -->
<g id="edge50" class="edge">
<title>H10&#45;&gt;O2</title>
<path fill="none" stroke="black" d="M181.76,-148.16C201.69,-204.49 250.24,-341.67 276.95,-417.13"/>
<polygon fill="black" stroke="black" points="273.59,-418.12 280.22,-426.38 280.19,-415.78 273.59,-418.12"/>
</g>
</g>
</svg>
